<svg width="120" height="57" viewBox="0 0 120 57" xmlns="http://www.w3.org/2000/svg"><title>Logo</title><desc>Created with Sketch.</desc><defs><linearGradient x1="50%" y1="-.001%" x2="50%" y2="99.998%" id="a"><stop stop-color="#BFD5E0" offset="0%"/><stop stop-color="#90ACBB" offset="100%"/></linearGradient></defs><g fill="none"><path d="M6.967 42.729c-3.832 0-6.949 3.104-6.949 6.919 0 3.815 3.118 6.919 6.949 6.919 3.832 0 6.949-3.104 6.949-6.919 0-3.815-3.118-6.919-6.949-6.919zm0 12.057c-2.845 0-5.16-2.305-5.16-5.138 0-2.833 2.315-5.138 5.16-5.138s5.16 2.305 5.16 5.138c0 2.833-2.315 5.138-5.16 5.138zm25.458-11.566h-.344v8.584c0 1.643-1.343 2.98-2.993 2.98s-2.993-1.337-2.993-2.98v-8.584h-1.789v8.584c0 1.643-1.343 2.98-2.993 2.98s-2.993-1.337-2.993-2.98v-8.584h-1.789v8.584c0 2.625 2.145 4.761 4.782 4.761 1.602 0 3.019-.791 3.888-1.999.868 1.207 2.286 1.999 3.888 1.999 2.637 0 4.782-2.136 4.782-4.761v-8.584h-1.445zm11.148-.547c-3.832 0-6.95 3.104-6.95 6.919v6.427h1.789v-6.427c0-2.833 2.315-5.138 5.161-5.138 2.846 0 5.161 2.305 5.161 5.138v6.427h1.789v-6.427c0-3.815-3.118-6.919-6.95-6.919z" id="Shape" fill="#E76E34"/><path d="M80.594 42.729c-3.832 0-6.95 3.104-6.95 6.92s3.118 6.92 6.95 6.92c3.832 0 6.95-3.104 6.95-6.92s-3.118-6.92-6.95-6.92zm0 12.058c-2.846 0-5.161-2.305-5.161-5.138 0-2.833 2.315-5.138 5.161-5.138 2.846 0 5.161 2.305 5.161 5.138 0 2.833-2.315 5.138-5.161 5.138zm21.605-11.566h-.344v6.428c0 2.833-2.315 5.138-5.161 5.138-2.846 0-5.161-2.305-5.161-5.138v-6.428h-1.789v6.428c0 3.815 3.118 6.919 6.95 6.919 3.832 0 6.95-3.104 6.95-6.919v-6.428h-1.445zm17.759.418v-11.381h-1.789v10.462l-5.218.006c-3.832 0-6.949 3.104-6.949 6.919 0 3.815 3.118 6.919 6.95 6.919h2.16c2.156 0 4.798-2.117 4.846-4.746.034-1.88.006-7.143 0-8.179zm-1.789 8.147c-.028 1.544-1.746 2.997-3.057 2.997h-2.16c-2.846 0-5.161-2.305-5.161-5.138 0-2.833 2.315-5.138 5.161-5.138l5.222-.006c.008 1.657.024 5.695-.005 7.285zm-49.134.019v-13.631c-.623-.313-1.221-.668-1.789-1.064v14.695c0 2.625 2.145 4.761 4.782 4.761h.344v-1.782h-.344c-1.65 0-2.993-1.337-2.993-2.98zm-14.201-5.765c0-2.656 1.197-5.038 3.081-6.644-.593-.227-1.144-.54-1.637-.922-1.991 1.916-3.233 4.598-3.233 7.566 0 5.805 4.743 10.527 10.573 10.527h.344v-1.782h-.344c-4.843 0-8.784-3.923-8.784-8.746z" fill="#567B8F"/><path d="M55.202 12.044c-.419-.732-.661-1.576-.661-2.477 0-2.77 2.263-5.024 5.046-5.024 1.029 0 1.987.31 2.785.839-.593 1.33-.925 2.801-.925 4.347 0 .285.015.566.037.846l-.594-.015c-2.064 0-4.003.541-5.686 1.484zm-1.112 19.486c-2.925-2.106-4.833-5.528-4.833-9.389 0-.987.125-1.945.359-2.859l-.291-.007c-5.349 0-9.7 4.333-9.7 9.658 0 5.325 4.351 9.658 9.7 9.658 2.038 0 3.931-.631 5.494-1.705-.645-.996-1.021-2.179-1.021-3.45 0-.664.102-1.304.292-1.906zm.435-1.041c.871-1.659 2.452-2.891 4.339-3.294.178-.039.36-.068.544-.091.181-.023.365-.039.55-.045l.253-.006c.298 0 .59.022.877.061-.09-.651-.14-1.316-.14-1.991 0-3.246 1.069-6.246 2.874-8.675-.409-.507-.773-1.05-1.086-1.627l-.25-.494-.225-.507c-.282-.679-.494-1.394-.631-2.134-.245-.017-.491-.029-.74-.029-1.823 0-3.538.464-5.035 1.278l-.487.284-.465.304c-1.708 1.18-3.048 2.848-3.818 4.801l-.19.522-.162.532c-.242.881-.374 1.808-.374 2.764 0 3.403 1.637 6.431 4.167 8.347zm33.984-12.366c1.403-.734 2.973-1.19 4.638-1.296-.43-4.932-4.597-8.816-9.661-8.816l-.577.018c.089.554.136 1.122.136 1.701 0 .898-.113 1.77-.322 2.604 2.434 1.345 4.447 3.357 5.784 5.789zm-25.841-6.87l.112.577c.098.438.225.865.38 1.279l.224.542.25.516c.258.495.557.965.894 1.405.677-.779 1.433-1.487 2.259-2.11l.475-.341.486-.322c2.227-1.417 4.861-2.251 7.686-2.287l.191-.005.548.014c.251.009.501.025.749.047 1.695.149 3.308.585 4.79 1.261.151-.676.233-1.377.233-2.097 0-.535-.046-1.061-.131-1.573l-.106-.538-.136-.531c-1.158-4.044-4.899-7.015-9.327-7.015-3.653 0-6.84 2.022-8.494 5.001l-.263.506-.239.545c-.452 1.115-.704 2.331-.704 3.605 0 .323.017.642.048.956l.074.566zm43.688 16.332c-.291 0-.574.03-.852.074.015.239.025.48.025.722 0 3.076-1.213 5.873-3.185 7.949.975 1.12 2.41 1.832 4.011 1.832 2.929 0 5.312-2.373 5.312-5.289 0-2.917-2.383-5.289-5.312-5.289zm-1.938.37l-.038-.571-.068-.561c-.74-4.922-4.928-8.735-10.03-8.917l-.383-.01-.167.004-.551.023c-1.501.101-2.917.517-4.182 1.181.761 1.671 1.217 3.507 1.292 5.439l.015.578-.004.169c-.003.247-.012.491-.027.735-.224 3.636-1.788 6.916-4.207 9.356 1.929 2.137 4.725 3.484 7.831 3.484 2.682 0 5.132-1.005 6.993-2.655l.413-.385.395-.411c1.695-1.862 2.729-4.33 2.729-7.034l-.011-.427zm-41.192 4.972l-.304-.498c-.746-1.281-1.303-2.683-1.631-4.171-.349-.072-.711-.111-1.081-.111l-.116.006c-.186.004-.368.018-.549.04-.185.023-.366.056-.544.097-1.565.365-2.862 1.419-3.555 2.823-.082.166-.155.336-.219.511-.064.174-.119.352-.164.533-.103.41-.163.837-.163 1.278 0 1.016.294 1.964.796 2.77.098.158.204.311.317.457.111.143.229.281.355.413.968 1.013 2.331 1.649 3.844 1.649 2.25 0 4.173-1.403 4.946-3.375-.59-.598-1.128-1.246-1.608-1.936l-.323-.487zm25.934-6.758c.018-.232.03-.464.036-.699l.009-.348c0-1.94-.416-3.784-1.158-5.453l-.236-.506-.25-.485c-1.2-2.195-2.995-4.02-5.165-5.268l-.488-.268-.499-.249c-1.666-.784-3.517-1.238-5.468-1.283l-.315-.008-.389.01c-.234.006-.466.019-.696.037-2.14.169-4.142.832-5.889 1.878l-.481.303-.471.325c-.906.651-1.727 1.409-2.447 2.256l-.351.434-.33.441c-1.586 2.212-2.523 4.916-2.523 7.835 0 .77.069 1.525.194 2.26l.122.63c.05.227.106.452.167.675.339 1.233.847 2.396 1.501 3.462l.307.477.329.465c.254.345.523.677.808.996.156.174.314.344.478.51l.462.445c2.422 2.23 5.658 3.596 9.209 3.596 3.421 0 6.549-1.269 8.939-3.356l.406-.369.4-.394c1.987-2.042 3.334-4.703 3.718-7.661.03-.228.054-.458.072-.691z" fill="url(#a)"/></g></svg>